<mxfile host="65bd71144e">
    <diagram id="vf1xtiBl3QLcEVPzXh17" name="Page-1">
        <mxGraphModel dx="2701" dy="825" grid="1" gridSize="10" guides="1" tooltips="1" connect="1" arrows="1" fold="1" page="1" pageScale="1" pageWidth="850" pageHeight="1100" math="0" shadow="0">
            <root>
                <mxCell id="0"/>
                <mxCell id="1" parent="0"/>
                <mxCell id="4" value="" style="edgeStyle=none;html=1;exitX=1;exitY=0.3333333333333333;exitDx=0;exitDy=0;exitPerimeter=0;" parent="1" source="2" target="3" edge="1">
                    <mxGeometry relative="1" as="geometry"/>
                </mxCell>
                <mxCell id="9" value="Επιλογή &quot;Προφίλ&quot;" style="edgeLabel;html=1;align=center;verticalAlign=middle;resizable=0;points=[];" parent="4" vertex="1" connectable="0">
                    <mxGeometry x="-0.6" y="1" relative="1" as="geometry">
                        <mxPoint x="43" y="1" as="offset"/>
                    </mxGeometry>
                </mxCell>
                <mxCell id="57" value="Προσθήκη κάρτας" style="edgeStyle=none;html=1;exitX=1;exitY=0.3333333333333333;exitDx=0;exitDy=0;exitPerimeter=0;entryX=-0.007;entryY=0.509;entryDx=0;entryDy=0;entryPerimeter=0;" parent="1" source="2" target="5" edge="1">
                    <mxGeometry relative="1" as="geometry"/>
                </mxCell>
                <mxCell id="60" value="Συμπλήρωση και&lt;br&gt;προσθήκη κάρτας" style="edgeStyle=none;html=1;exitX=1;exitY=0.3333333333333333;exitDx=0;exitDy=0;exitPerimeter=0;" parent="1" source="2" edge="1">
                    <mxGeometry relative="1" as="geometry">
                        <mxPoint x="510" y="920" as="targetPoint"/>
                    </mxGeometry>
                </mxCell>
                <mxCell id="2" value="Customer" style="shape=umlActor;verticalLabelPosition=bottom;verticalAlign=top;html=1;" parent="1" vertex="1">
                    <mxGeometry x="-30" y="490" width="30" height="60" as="geometry"/>
                </mxCell>
                <mxCell id="7" style="edgeStyle=none;html=1;" parent="1" source="3" target="6" edge="1">
                    <mxGeometry relative="1" as="geometry"/>
                </mxCell>
                <mxCell id="3" value="Αρχική Οθόνη" style="shape=umlBoundary;whiteSpace=wrap;html=1;" parent="1" vertex="1">
                    <mxGeometry x="140" y="470" width="100" height="80" as="geometry"/>
                </mxCell>
                <mxCell id="61" style="edgeStyle=none;html=1;entryX=0.39;entryY=0.132;entryDx=0;entryDy=0;entryPerimeter=0;" parent="1" source="5" target="63" edge="1">
                    <mxGeometry relative="1" as="geometry">
                        <mxPoint x="500" y="810" as="targetPoint"/>
                    </mxGeometry>
                </mxCell>
                <mxCell id="5" value="Προφίλ" style="shape=umlBoundary;whiteSpace=wrap;html=1;" parent="1" vertex="1">
                    <mxGeometry x="400" y="600" width="100" height="80" as="geometry"/>
                </mxCell>
                <mxCell id="8" style="edgeStyle=none;html=1;entryX=0.03;entryY=0.5;entryDx=0;entryDy=0;entryPerimeter=0;" parent="1" source="6" target="5" edge="1">
                    <mxGeometry relative="1" as="geometry"/>
                </mxCell>
                <mxCell id="55" value="" style="edgeStyle=none;html=1;" parent="1" source="6" target="54" edge="1">
                    <mxGeometry relative="1" as="geometry"/>
                </mxCell>
                <mxCell id="6" value="Εμφάνιση" style="ellipse;shape=umlControl;whiteSpace=wrap;html=1;" parent="1" vertex="1">
                    <mxGeometry x="310" y="470" width="70" height="80" as="geometry"/>
                </mxCell>
                <mxCell id="21" style="edgeStyle=none;html=1;entryX=0;entryY=0.5;entryDx=0;entryDy=0;" parent="1" target="20" edge="1">
                    <mxGeometry relative="1" as="geometry">
                        <mxPoint x="565.0000000000146" y="960" as="sourcePoint"/>
                    </mxGeometry>
                </mxCell>
                <mxCell id="20" value="Wallet" style="ellipse;shape=umlEntity;whiteSpace=wrap;html=1;" parent="1" vertex="1">
                    <mxGeometry x="640" y="920" width="80" height="80" as="geometry"/>
                </mxCell>
                <mxCell id="27" style="edgeStyle=none;html=1;" parent="1" source="25" target="26" edge="1">
                    <mxGeometry relative="1" as="geometry"/>
                </mxCell>
                <mxCell id="99" value="Σωστή μορφοποίηση" style="edgeLabel;html=1;align=center;verticalAlign=middle;resizable=0;points=[];" vertex="1" connectable="0" parent="27">
                    <mxGeometry x="-0.6" relative="1" as="geometry">
                        <mxPoint x="-41" y="13" as="offset"/>
                    </mxGeometry>
                </mxCell>
                <mxCell id="25" value="Έλεγχος Σωστής μορφοποίησης" style="ellipse;shape=umlControl;whiteSpace=wrap;html=1;" parent="1" vertex="1">
                    <mxGeometry x="320" y="1176.67" width="90" height="100" as="geometry"/>
                </mxCell>
                <mxCell id="28" style="edgeStyle=none;html=1;" parent="1" source="26" edge="1" target="30">
                    <mxGeometry relative="1" as="geometry">
                        <mxPoint x="255" y="1306.67" as="targetPoint"/>
                    </mxGeometry>
                </mxCell>
                <mxCell id="34" style="edgeStyle=none;html=1;" parent="1" source="26" target="33" edge="1">
                    <mxGeometry relative="1" as="geometry"/>
                </mxCell>
                <mxCell id="73" value="Σωστή&lt;br&gt;Επικύρωση&amp;nbsp;&lt;br&gt;των&lt;br&gt;Στοιχείων" style="edgeLabel;html=1;align=center;verticalAlign=middle;resizable=0;points=[];" connectable="0" vertex="1" parent="34">
                    <mxGeometry x="-0.325" relative="1" as="geometry">
                        <mxPoint x="-13" y="9" as="offset"/>
                    </mxGeometry>
                </mxCell>
                <mxCell id="26" value="Επικοινωνία με Τραπεζικό Σύστημα" style="ellipse;shape=umlControl;whiteSpace=wrap;html=1;" parent="1" vertex="1">
                    <mxGeometry x="95" y="1196.67" width="80" height="90" as="geometry"/>
                </mxCell>
                <mxCell id="30" value="Τράπεζα" style="shape=umlActor;verticalLabelPosition=bottom;verticalAlign=top;html=1;" parent="1" vertex="1">
                    <mxGeometry x="200" y="1358.3400000000001" width="30" height="60" as="geometry"/>
                </mxCell>
                <mxCell id="36" style="edgeStyle=none;html=1;" parent="1" source="33" target="35" edge="1">
                    <mxGeometry relative="1" as="geometry"/>
                </mxCell>
                <mxCell id="38" value="" style="edgeStyle=none;html=1;" parent="1" source="33" target="37" edge="1">
                    <mxGeometry relative="1" as="geometry"/>
                </mxCell>
                <mxCell id="50" style="edgeStyle=none;html=1;entryX=0.229;entryY=0.913;entryDx=0;entryDy=0;entryPerimeter=0;strokeColor=#B85450;strokeWidth=2;exitX=0.675;exitY=0.133;exitDx=0;exitDy=0;exitPerimeter=0;" parent="1" source="33" target="83" edge="1">
                    <mxGeometry relative="1" as="geometry"/>
                </mxCell>
                <mxCell id="51" value="Αδυναμία Επικοινωνίας" style="edgeLabel;html=1;align=center;verticalAlign=middle;resizable=0;points=[];" parent="50" vertex="1" connectable="0">
                    <mxGeometry x="-0.4583" y="1" relative="1" as="geometry">
                        <mxPoint as="offset"/>
                    </mxGeometry>
                </mxCell>
                <mxCell id="33" value="Αποθήκευση&amp;nbsp;&lt;br&gt;Στη&lt;br&gt;Βάση" style="ellipse;shape=umlControl;whiteSpace=wrap;html=1;" parent="1" vertex="1">
                    <mxGeometry x="-80" y="1198.34" width="80" height="90" as="geometry"/>
                </mxCell>
                <mxCell id="35" value="Βάση Δεδομένων" style="ellipse;shape=umlEntity;whiteSpace=wrap;html=1;" parent="1" vertex="1">
                    <mxGeometry x="-80" y="1340" width="80" height="80" as="geometry"/>
                </mxCell>
                <mxCell id="37" value="Εμφάνιση Μηνύματος Επιτυχίας" style="ellipse;shape=umlControl;whiteSpace=wrap;html=1;" parent="1" vertex="1">
                    <mxGeometry x="-230" y="1201.67" width="70" height="80" as="geometry"/>
                </mxCell>
                <mxCell id="47" value="Μήνυμα Σφάλματος" style="ellipse;shape=umlControl;whiteSpace=wrap;html=1;strokeColor=#B85450;" parent="1" vertex="1">
                    <mxGeometry x="-280" y="910" width="70" height="80" as="geometry"/>
                </mxCell>
                <mxCell id="87" style="edgeStyle=none;html=1;exitX=1.011;exitY=0.471;exitDx=0;exitDy=0;exitPerimeter=0;strokeColor=#B85450;entryX=-0.014;entryY=0.538;entryDx=0;entryDy=0;entryPerimeter=0;" edge="1" parent="1" source="96" target="102">
                    <mxGeometry relative="1" as="geometry">
                        <mxPoint x="260" y="960" as="sourcePoint"/>
                        <mxPoint x="340" y="960" as="targetPoint"/>
                    </mxGeometry>
                </mxCell>
                <mxCell id="54" value="Wallet" style="ellipse;shape=umlEntity;whiteSpace=wrap;html=1;" parent="1" vertex="1">
                    <mxGeometry x="305" y="360" width="80" height="80" as="geometry"/>
                </mxCell>
                <mxCell id="62" style="edgeStyle=none;html=1;entryX=0.471;entryY=0.11;entryDx=0;entryDy=0;entryPerimeter=0;" parent="1" source="59" target="67" edge="1">
                    <mxGeometry relative="1" as="geometry">
                        <mxPoint x="550" y="1030" as="targetPoint"/>
                    </mxGeometry>
                </mxCell>
                <mxCell id="59" value="Φόρμα&lt;br&gt;στοιχείων κάρτας" style="shape=umlBoundary;whiteSpace=wrap;html=1;" parent="1" vertex="1">
                    <mxGeometry x="480" y="920" width="100" height="80" as="geometry"/>
                </mxCell>
                <mxCell id="64" style="edgeStyle=none;html=1;entryX=0.616;entryY=0.018;entryDx=0;entryDy=0;entryPerimeter=0;" parent="1" source="63" target="59" edge="1">
                    <mxGeometry relative="1" as="geometry"/>
                </mxCell>
                <mxCell id="63" value="Εμφάνισε" style="ellipse;shape=umlControl;whiteSpace=wrap;html=1;" parent="1" vertex="1">
                    <mxGeometry x="425" y="730" width="70" height="80" as="geometry"/>
                </mxCell>
                <mxCell id="65" value="Μήνυμα σφάλματος" style="shape=umlBoundary;whiteSpace=wrap;html=1;fillColor=none;strokeColor=#b85450;strokeWidth=2;" parent="1" vertex="1">
                    <mxGeometry x="625" y="1340.0000000000002" width="90" height="70" as="geometry"/>
                </mxCell>
                <mxCell id="68" value="" style="edgeStyle=none;html=1;" edge="1" parent="1" source="67" target="25">
                    <mxGeometry relative="1" as="geometry"/>
                </mxCell>
                <mxCell id="93" value="Συμπληρωμένο" style="edgeLabel;html=1;align=center;verticalAlign=middle;resizable=0;points=[];rotation=0;" vertex="1" connectable="0" parent="68">
                    <mxGeometry x="-0.4545" y="-2" relative="1" as="geometry">
                        <mxPoint x="-16" y="13" as="offset"/>
                    </mxGeometry>
                </mxCell>
                <mxCell id="67" value="Έλεγχος Συμπλήρωσης των πεδίων" style="ellipse;shape=umlControl;whiteSpace=wrap;html=1;" vertex="1" parent="1">
                    <mxGeometry x="505" y="1166.67" width="85" height="100" as="geometry"/>
                </mxCell>
                <mxCell id="69" style="edgeStyle=none;html=1;strokeWidth=2;fontSize=12;fillColor=none;strokeColor=#b85450;exitX=0.524;exitY=1.002;exitDx=0;exitDy=0;exitPerimeter=0;entryX=0.7;entryY=0.143;entryDx=0;entryDy=0;entryPerimeter=0;" edge="1" parent="1" source="67" target="110">
                    <mxGeometry relative="1" as="geometry">
                        <mxPoint x="580.0045118110477" y="1286.66988111208" as="sourcePoint"/>
                        <mxPoint x="548.6599999999999" y="1354.9465500000001" as="targetPoint"/>
                        <Array as="points"/>
                    </mxGeometry>
                </mxCell>
                <mxCell id="72" value="Μη Συμπληρωμένο" style="edgeLabel;html=1;align=center;verticalAlign=middle;resizable=0;points=[];rotation=0;" connectable="0" vertex="1" parent="69">
                    <mxGeometry x="-0.5544" y="-1" relative="1" as="geometry">
                        <mxPoint x="2" y="12" as="offset"/>
                    </mxGeometry>
                </mxCell>
                <mxCell id="70" style="edgeStyle=none;html=1;strokeWidth=2;fontSize=12;fillColor=none;strokeColor=#b85450;exitX=1;exitY=0.582;exitDx=0;exitDy=0;exitPerimeter=0;entryX=0.044;entryY=0.524;entryDx=0;entryDy=0;entryPerimeter=0;" edge="1" parent="1" source="110" target="65">
                    <mxGeometry relative="1" as="geometry">
                        <mxPoint x="590.3399999999997" y="1400.9582400000004" as="sourcePoint"/>
                        <mxPoint x="660" y="1394" as="targetPoint"/>
                        <Array as="points"/>
                    </mxGeometry>
                </mxCell>
                <mxCell id="75" value="Εμφάνισε" style="ellipse;shape=umlControl;whiteSpace=wrap;html=1;fillColor=none;strokeColor=#b85450;strokeWidth=2;" vertex="1" parent="1">
                    <mxGeometry x="635" y="1188.3400000000001" width="80" height="93.33" as="geometry"/>
                </mxCell>
                <mxCell id="76" style="edgeStyle=none;html=1;strokeWidth=2;fontSize=12;fillColor=none;strokeColor=#b85450;exitX=0.587;exitY=-0.033;exitDx=0;exitDy=0;exitPerimeter=0;entryX=0.55;entryY=1;entryDx=0;entryDy=0;entryPerimeter=0;" edge="1" parent="1" source="65" target="75">
                    <mxGeometry relative="1" as="geometry">
                        <mxPoint x="688.3800000000003" y="1330.03" as="sourcePoint"/>
                        <mxPoint x="710" y="1290" as="targetPoint"/>
                        <Array as="points"/>
                    </mxGeometry>
                </mxCell>
                <mxCell id="77" style="edgeStyle=none;html=1;strokeWidth=2;fontSize=12;fillColor=none;strokeColor=#b85450;entryX=0.83;entryY=0.9;entryDx=0;entryDy=0;entryPerimeter=0;exitX=0.175;exitY=0.203;exitDx=0;exitDy=0;exitPerimeter=0;" edge="1" parent="1" source="75" target="59">
                    <mxGeometry relative="1" as="geometry">
                        <mxPoint x="610.0000000000003" y="1310.03" as="sourcePoint"/>
                        <mxPoint x="681.6200000000002" y="1306.6699999999998" as="targetPoint"/>
                        <Array as="points"/>
                    </mxGeometry>
                </mxCell>
                <mxCell id="78" value="Εμφάνισε" style="ellipse;shape=umlControl;whiteSpace=wrap;html=1;fillColor=none;strokeColor=#b85450;strokeWidth=2;" vertex="1" parent="1">
                    <mxGeometry x="-285" y="780" width="80" height="95" as="geometry"/>
                </mxCell>
                <mxCell id="80" value="Μήνυμα σφάλματος" style="shape=umlBoundary;whiteSpace=wrap;html=1;fillColor=none;strokeColor=#b85450;strokeWidth=2;" vertex="1" parent="1">
                    <mxGeometry x="-300" y="1010" width="90" height="70" as="geometry"/>
                </mxCell>
                <mxCell id="82" value="Εμφάνισε" style="ellipse;shape=umlControl;whiteSpace=wrap;html=1;fillColor=none;strokeColor=#b85450;strokeWidth=2;" vertex="1" parent="1">
                    <mxGeometry x="-280" y="660" width="80" height="95" as="geometry"/>
                </mxCell>
                <mxCell id="88" style="edgeStyle=none;html=1;entryX=-0.044;entryY=0.5;entryDx=0;entryDy=0;entryPerimeter=0;strokeColor=#B85450;exitX=0.686;exitY=0.138;exitDx=0;exitDy=0;exitPerimeter=0;" edge="1" parent="1" source="83" target="96">
                    <mxGeometry relative="1" as="geometry">
                        <mxPoint x="80" y="990" as="sourcePoint"/>
                        <mxPoint x="172.93449327842336" y="976.0327533607883" as="targetPoint"/>
                    </mxGeometry>
                </mxCell>
                <mxCell id="83" value="Εμφάνισε" style="ellipse;shape=umlControl;whiteSpace=wrap;html=1;fillColor=none;strokeColor=#b85450;strokeWidth=2;" vertex="1" parent="1">
                    <mxGeometry x="30" y="990" width="70" height="80" as="geometry"/>
                </mxCell>
                <mxCell id="89" style="edgeStyle=none;html=1;strokeWidth=2;fontSize=12;fillColor=none;strokeColor=#b85450;exitX=0.533;exitY=1.003;exitDx=0;exitDy=0;exitPerimeter=0;entryX=0.388;entryY=0.107;entryDx=0;entryDy=0;entryPerimeter=0;" edge="1" parent="1" source="25" target="111">
                    <mxGeometry relative="1" as="geometry">
                        <mxPoint x="330" y="1110" as="sourcePoint"/>
                        <mxPoint x="350" y="1390" as="targetPoint"/>
                        <Array as="points"/>
                    </mxGeometry>
                </mxCell>
                <mxCell id="90" value="Μη επιτρεπτή/Ελλιπής&lt;br&gt;&amp;nbsp;μορφή" style="edgeLabel;html=1;align=center;verticalAlign=middle;resizable=0;points=[];rotation=0;" connectable="0" vertex="1" parent="89">
                    <mxGeometry x="-0.5544" y="-1" relative="1" as="geometry">
                        <mxPoint x="8" y="16" as="offset"/>
                    </mxGeometry>
                </mxCell>
                <mxCell id="94" style="edgeStyle=none;html=1;strokeWidth=2;fontSize=12;fillColor=none;strokeColor=#b85450;exitX=0.288;exitY=0.156;exitDx=0;exitDy=0;exitPerimeter=0;entryX=0.429;entryY=0.938;entryDx=0;entryDy=0;entryPerimeter=0;" edge="1" parent="1" source="26" target="101">
                    <mxGeometry relative="1" as="geometry">
                        <mxPoint x="204.41999999999996" y="1196.67" as="sourcePoint"/>
                        <mxPoint x="170" y="1080" as="targetPoint"/>
                        <Array as="points"/>
                    </mxGeometry>
                </mxCell>
                <mxCell id="95" value="Αδυναμία επικύρωσης στοιχείων" style="edgeLabel;html=1;align=center;verticalAlign=middle;resizable=0;points=[];" vertex="1" connectable="0" parent="94">
                    <mxGeometry x="-0.1911" y="-4" relative="1" as="geometry">
                        <mxPoint x="-11" y="-9" as="offset"/>
                    </mxGeometry>
                </mxCell>
                <mxCell id="96" value="Μήνυμα σφάλματος" style="shape=umlBoundary;whiteSpace=wrap;html=1;fillColor=none;strokeColor=#b85450;strokeWidth=2;" vertex="1" parent="1">
                    <mxGeometry x="110" y="920" width="90" height="70" as="geometry"/>
                </mxCell>
                <mxCell id="101" value="Εμφάνισε" style="ellipse;shape=umlControl;whiteSpace=wrap;html=1;fillColor=none;strokeColor=#b85450;strokeWidth=2;" vertex="1" parent="1">
                    <mxGeometry x="175" y="1020" width="70" height="80" as="geometry"/>
                </mxCell>
                <mxCell id="103" style="edgeStyle=none;html=1;entryX=0.02;entryY=0.575;entryDx=0;entryDy=0;entryPerimeter=0;strokeColor=#B85450;strokeWidth=2;" edge="1" parent="1" source="102" target="59">
                    <mxGeometry relative="1" as="geometry"/>
                </mxCell>
                <mxCell id="102" value="Εμφάνισε" style="ellipse;shape=umlControl;whiteSpace=wrap;html=1;fillColor=none;strokeColor=#b85450;strokeWidth=2;" vertex="1" parent="1">
                    <mxGeometry x="240" y="880" width="70" height="80" as="geometry"/>
                </mxCell>
                <mxCell id="104" style="edgeStyle=none;html=1;exitX=1.011;exitY=0.471;exitDx=0;exitDy=0;exitPerimeter=0;strokeColor=#B85450;entryX=-0.014;entryY=0.538;entryDx=0;entryDy=0;entryPerimeter=0;" edge="1" parent="1" source="106" target="107">
                    <mxGeometry relative="1" as="geometry">
                        <mxPoint x="421.98" y="1049.48" as="sourcePoint"/>
                        <mxPoint x="501.98" y="1049.48" as="targetPoint"/>
                    </mxGeometry>
                </mxCell>
                <mxCell id="105" style="edgeStyle=none;html=1;strokeColor=#B85450;exitX=1;exitY=0.575;exitDx=0;exitDy=0;exitPerimeter=0;" edge="1" parent="1" source="101">
                    <mxGeometry relative="1" as="geometry">
                        <mxPoint x="239.99999999999997" y="1090.52" as="sourcePoint"/>
                        <mxPoint x="270" y="1044" as="targetPoint"/>
                    </mxGeometry>
                </mxCell>
                <mxCell id="106" value="Μήνυμα σφάλματος" style="shape=umlBoundary;whiteSpace=wrap;html=1;fillColor=none;strokeColor=#b85450;strokeWidth=2;" vertex="1" parent="1">
                    <mxGeometry x="271.98" y="1009.48" width="90" height="70" as="geometry"/>
                </mxCell>
                <mxCell id="108" style="edgeStyle=none;html=1;entryX=-0.01;entryY=0.638;entryDx=0;entryDy=0;entryPerimeter=0;strokeColor=#B85450;strokeWidth=2;exitX=0.757;exitY=0.2;exitDx=0;exitDy=0;exitPerimeter=0;" edge="1" parent="1" source="107" target="59">
                    <mxGeometry relative="1" as="geometry"/>
                </mxCell>
                <mxCell id="107" value="Εμφάνισε" style="ellipse;shape=umlControl;whiteSpace=wrap;html=1;fillColor=none;strokeColor=#b85450;strokeWidth=2;" vertex="1" parent="1">
                    <mxGeometry x="390" y="1000" width="70" height="80" as="geometry"/>
                </mxCell>
                <mxCell id="110" value="Εμφάνισε" style="ellipse;shape=umlControl;whiteSpace=wrap;html=1;fillColor=none;strokeColor=#b85450;strokeWidth=2;" vertex="1" parent="1">
                    <mxGeometry x="505" y="1333.33" width="80" height="93.33" as="geometry"/>
                </mxCell>
                <mxCell id="113" style="edgeStyle=none;html=1;entryX=-0.011;entryY=0.657;entryDx=0;entryDy=0;entryPerimeter=0;strokeColor=#B85450;strokeWidth=2;" edge="1" parent="1" source="111" target="112">
                    <mxGeometry relative="1" as="geometry"/>
                </mxCell>
                <mxCell id="111" value="Εμφάνισε" style="ellipse;shape=umlControl;whiteSpace=wrap;html=1;fillColor=none;strokeColor=#b85450;strokeWidth=2;" vertex="1" parent="1">
                    <mxGeometry x="330" y="1380" width="80" height="93.33" as="geometry"/>
                </mxCell>
                <mxCell id="115" style="edgeStyle=none;html=1;entryX=0.55;entryY=1.032;entryDx=0;entryDy=0;entryPerimeter=0;strokeColor=#B85450;strokeWidth=2;" edge="1" parent="1" source="112" target="114">
                    <mxGeometry relative="1" as="geometry"/>
                </mxCell>
                <mxCell id="112" value="Μήνυμα σφάλματος" style="shape=umlBoundary;whiteSpace=wrap;html=1;fillColor=none;strokeColor=#b85450;strokeWidth=2;" vertex="1" parent="1">
                    <mxGeometry x="650" y="1440.0000000000002" width="90" height="70" as="geometry"/>
                </mxCell>
                <mxCell id="116" style="edgeStyle=none;html=1;entryX=0.95;entryY=0.775;entryDx=0;entryDy=0;entryPerimeter=0;strokeColor=#B85450;strokeWidth=2;exitX=0.25;exitY=0.154;exitDx=0;exitDy=0;exitPerimeter=0;" edge="1" parent="1" source="114" target="59">
                    <mxGeometry relative="1" as="geometry"/>
                </mxCell>
                <mxCell id="114" value="Εμφάνισε" style="ellipse;shape=umlControl;whiteSpace=wrap;html=1;fillColor=none;strokeColor=#b85450;strokeWidth=2;" vertex="1" parent="1">
                    <mxGeometry x="740" y="1220" width="80" height="93.33" as="geometry"/>
                </mxCell>
            </root>
        </mxGraphModel>
    </diagram>
</mxfile>